<svg id="Layer_1" data-name="Layer 1" xmlns="http://www.w3.org/2000/svg" viewBox="0 0 75.71 75.6"><defs><style>.cls-1{fill:#b18883;}.cls-2{fill:#401264;}.cls-3{fill:#c5b7d0;}</style></defs><title>resist</title><path class="cls-1" d="M76.49,42a62.9,62.9,0,0,1-2.34,6.2,79.26,79.26,0,0,0-.6-8.35c.27-.92.49-1.81.68-2.68A29,29,0,0,1,76.49,42Z" transform="translate(-5.12 -4.79)"/><path class="cls-1" d="M23.54,18a34.51,34.51,0,0,1,2.68-4.22A63.74,63.74,0,0,1,33,12.69c-2.3,1.4-4.57,2.94-6.75,4.58C25.29,17.48,24.4,17.72,23.54,18Z" transform="translate(-5.12 -4.79)"/><path class="cls-1" d="M42.92,77a13.17,13.17,0,0,0,6.66-2.35,32.34,32.34,0,0,0,4.13-3.11c.76-.66,1.52-1.37,2.28-2.12a64.61,64.61,0,0,0,5.42-6.24,80.33,80.33,0,0,0,8-12.81c.48-.94.92-1.87,1.33-2.79a58.74,58.74,0,0,1-.32,8.22c-.58,1-1.19,2-1.81,3a82.44,82.44,0,0,1-4.85,7A66.36,66.36,0,0,1,59,71.21a47,47,0,0,1-4,3.71c-4.1,3.38-8.28,5.48-12.11,5.48-4,0-8.18-2.2-12.14-5.54a46.93,46.93,0,0,0,5.35-.28A13.2,13.2,0,0,0,42.92,77Z" transform="translate(-5.12 -4.79)"/><path class="cls-1" d="M77.87,36.62a47.62,47.62,0,0,0-2.94-4.76c.07-2.95-.49-5.35-1.73-7a13.91,13.91,0,0,0-4.14-3.45,29.56,29.56,0,0,0-4.68-2.17c-.48-.18-1-.36-1.47-.52A56.63,56.63,0,0,0,55,16.79a80.92,80.92,0,0,0-18.06-1c-1,.06-1.95.13-2.9.23a63.63,63.63,0,0,1,7-3.79h.46c2.28,0,4.6.1,6.91.28a80.43,80.43,0,0,1,8.07,1.06c1.87.35,3.69.76,5.43,1.25a45.08,45.08,0,0,1,5,1.71C70.82,18.17,74,20.24,76,22.81,78.68,26.44,78.82,31.56,77.87,36.62Z" transform="translate(-5.12 -4.79)"/><path class="cls-1" d="M32,71.39h-.74a28.91,28.91,0,0,1-4.43-.32c-1.47-1.57-2.89-3.25-4.23-5,2.43,1.27,5,2.42,7.44,3.42C30.67,70.18,31.33,70.8,32,71.39Z" transform="translate(-5.12 -4.79)"/><path class="cls-1" d="M12.74,24.71a13.06,13.06,0,0,0-1.34,7,31.64,31.64,0,0,0,.66,5.08c.24,1.14.53,2.31.89,3.52a61.83,61.83,0,0,0,2.68,7.29,82.24,82.24,0,0,0,3.87,7.66,83,83,0,0,0,5.29,8.08,59.1,59.1,0,0,1-6.95-4.16c-.46-.74-.9-1.48-1.32-2.21l-.84-1.51c-1.27-2.32-2.46-4.76-3.52-7.24a66.59,66.59,0,0,1-2.48-6.81,46.27,46.27,0,0,1-1.26-5.21c-.9-5.1-.68-9.79,1.35-13.26s5.93-6,11.47-7.88a51.61,51.61,0,0,0-2.38,4.64A13.6,13.6,0,0,0,12.74,24.71Z" transform="translate(-5.12 -4.79)"/><path class="cls-2" d="M55.69,17.31,55,16.79a56.63,56.63,0,0,1,7.94,1.94c.71.62,1.41,1.25,2.1,1.9a57.48,57.48,0,0,1,2.74,7.71A80.1,80.1,0,0,0,55.69,17.31Z" transform="translate(-5.12 -4.79)"/><path class="cls-2" d="M16,43.24c-.18,1.5-.31,3-.4,4.39A61.83,61.83,0,0,1,13,40.34c.33-2.19.76-4.42,1.27-6.64a62.5,62.5,0,0,1,5.19-5.93A80.64,80.64,0,0,0,16,43.24Z" transform="translate(-5.12 -4.79)"/><path class="cls-2" d="M51.84,67.28a80,80,0,0,0,9.57-4.14A64.61,64.61,0,0,1,56,69.38c-1,.4-2,.79-3,1.14-.76.27-1.53.53-2.31.79a60,60,0,0,1-8-1.35A80.72,80.72,0,0,0,51.84,67.28Z" transform="translate(-5.12 -4.79)"/><path class="cls-2" d="M80.66,48.63c-.69,3.85-3.47,7.5-7.33,10.77A47,47,0,0,1,69,62.66c-1.66,1.1-3.42,2.14-5.23,3.11a82.44,82.44,0,0,0,4.85-7q.81-.59,1.56-1.17A30.56,30.56,0,0,0,74,54a12.83,12.83,0,0,0,3.26-6,12.2,12.2,0,0,0-.78-6,29,29,0,0,0-2.26-4.83q-.66-1.15-1.44-2.34c-.27-1.46-.57-2.9-.91-4.32-.26-1.08-.61-2.41-1-3.89a65.71,65.71,0,0,1,4.09,5.22,47.62,47.62,0,0,1,2.94,4.76C80.15,40.93,81.29,45.09,80.66,48.63Z" transform="translate(-5.12 -4.79)"/><path class="cls-2" d="M44.74,10.72A33.54,33.54,0,0,0,40,9c-3.54-1-6.53-1-8.67.12a15.51,15.51,0,0,0-5.07,4.66A34.51,34.51,0,0,0,23.54,18c-.42.77-.83,1.58-1.23,2.42q-1.65,1.39-3.18,2.84c-.94.88-1.83,1.76-2.68,2.64.72-2.13,1.53-4.2,2.41-6.14a51.61,51.61,0,0,1,2.38-4.64c2.45-4.19,5.32-7.46,8.5-9.07a12.15,12.15,0,0,1,5.54-1.23A25.86,25.86,0,0,1,44.92,7a50.81,50.81,0,0,1,4.8,2.34,70,70,0,0,1,6.69,4.21,80.43,80.43,0,0,0-8.07-1.06C47.11,11.85,45.91,11.24,44.74,10.72Z" transform="translate(-5.12 -4.79)"/><path class="cls-2" d="M15.93,57.79a29.49,29.49,0,0,0,1.13,5.07,12.62,12.62,0,0,0,3.49,5.73,12.62,12.62,0,0,0,6.26,2.49,28.91,28.91,0,0,0,4.43.32H32q1.33,0,2.76-.15a81.74,81.74,0,0,0,8,2.23,63.35,63.35,0,0,1-6.66,1.11,46.93,46.93,0,0,1-5.35.28c-5,0-9.47-1.1-12.46-3.65-2.76-2.35-4.64-6.32-5.57-11.54a44.88,44.88,0,0,1-.59-5.35c-.1-1.91-.1-3.94,0-6.07,1.06,2.48,2.25,4.92,3.52,7.24C15.74,56.28,15.83,57.05,15.93,57.79Z" transform="translate(-5.12 -4.79)"/><path class="cls-3" d="M74,54a30.56,30.56,0,0,1-3.88,3.63c.09-.61.17-1.23.25-1.86a58.74,58.74,0,0,0,.32-8.22,79.59,79.59,0,0,0-2.17-16.21c-.24-1-.5-2-.78-3A57.48,57.48,0,0,0,65,20.63c-.2-.47-.42-.94-.63-1.38a29.56,29.56,0,0,1,4.68,2.17c.71,1.83,1.3,3.61,1.78,5.22s.78,2.81,1,3.89c.34,1.42.64,2.86.91,4.32.3,1.65.56,3.33.76,5a79.26,79.26,0,0,1,.6,8.35C74.19,50.19,74.14,52.12,74,54Z" transform="translate(-5.12 -4.79)"/><path class="cls-3" d="M59,71.21a12.8,12.8,0,0,0,6.33-2.47A13.16,13.16,0,0,0,69,62.66a47,47,0,0,0,4.38-3.26c-1,5.22-2.83,9.51-5.77,12h0c-3,2.52-7.48,3.53-12.53,3.55A47,47,0,0,0,59,71.21Z" transform="translate(-5.12 -4.79)"/><path class="cls-3" d="M8.67,48.07a12.91,12.91,0,0,0,3.49,6.25,44.88,44.88,0,0,0,.59,5.35c-4-3.33-6.8-7.06-7.47-11-.61-3.57.5-7.82,3.14-12.41a46.27,46.27,0,0,0,1.26,5.21A12.51,12.51,0,0,0,8.67,48.07Z" transform="translate(-5.12 -4.79)"/><path class="cls-3" d="M55.12,9.36a14,14,0,0,0-5.4,0A50.81,50.81,0,0,0,44.92,7a26.26,26.26,0,0,1,7.76-1.37A14.46,14.46,0,0,1,55.9,6c4.81,1.12,8.39,5.55,11,10.54a45.08,45.08,0,0,0-5-1.71C59.75,11.82,57.45,9.91,55.12,9.36Z" transform="translate(-5.12 -4.79)"/><path class="cls-3" d="M34,16.05a81.6,81.6,0,0,0-12.52,9.68c-.73.68-1.42,1.36-2.08,2a62.5,62.5,0,0,0-5.19,5.93q-1.2,1.59-2.16,3.12a31.64,31.64,0,0,1-.66-5.08,63,63,0,0,1,5-5.87c.85-.88,1.74-1.76,2.68-2.64s2.08-1.91,3.18-2.84c1.26-1.07,2.57-2.11,3.91-3.12,2.18-1.64,4.45-3.18,6.75-4.58A66.79,66.79,0,0,1,40,9a33.54,33.54,0,0,1,4.78,1.75c-1.22.43-2.48.95-3.77,1.54A63.63,63.63,0,0,0,34,16.05Z" transform="translate(-5.12 -4.79)"/><path class="cls-3" d="M24.79,63.37a80.66,80.66,0,0,0,8.7,3.79A79.33,79.33,0,0,0,42.73,70a60,60,0,0,0,8,1.35c1,.1,2.05.17,3,.19a32.34,32.34,0,0,1-4.13,3.11,65,65,0,0,1-6.79-1.14,81.74,81.74,0,0,1-8-2.23c-.83-.28-1.65-.56-2.44-.85s-1.52-.57-2.28-.88c-2.49-1-5-2.15-7.44-3.42-1.91-1-3.77-2.08-5.52-3.23a29.49,29.49,0,0,1-1.13-5.07c.6.48,1.24,1,1.91,1.42A59.1,59.1,0,0,0,24.79,63.37Z" transform="translate(-5.12 -4.79)"/></svg>