<svg xmlns="http://www.w3.org/2000/svg" viewBox="0 0 70.49 68.14"><defs><style>.cls-1{fill:#b18883;}</style></defs><title>copper</title><g id="Layer_2" data-name="Layer 2"><g id="Layer_1-2" data-name="Layer 1"><path class="cls-1" d="M68.58,29.77c-.36,1.12-.75,2.21-1.14,3.25s-.81,2-1.2,2.94c0-1.37-.09-2.76-.19-4.15s-.24-2.8-.41-4.2c.13-.46.25-.91.37-1.35s.21-.89.31-1.32c.48.84.91,1.67,1.29,2.47S68.31,29,68.58,29.77Z"/><path class="cls-1" d="M15.63,5.71c.42-.78.86-1.53,1.31-2.23s.9-1.37,1.36-2c1.05-.22,2.14-.42,3.26-.6S23.85.56,25.05.44c-1.15.69-2.29,1.43-3.41,2.19S19.4,4.19,18.31,5c-.47.11-.93.22-1.37.34Z"/><path class="cls-1" d="M35,64.7a9.71,9.71,0,0,0,3.17-.6,18.58,18.58,0,0,0,3.49-1.74c.68-.42,1.36-.89,2.05-1.41s1.39-1.09,2.09-1.7c.38-.33.75-.67,1.13-1s.76-.72,1.14-1.1c.91-.91,1.83-1.89,2.73-2.93s1.81-2.15,2.7-3.31C54.94,49,56.35,47,57.69,44.82s2.6-4.41,3.77-6.74c.24-.47.46-.94.68-1.41s.44-.93.64-1.39c0,1.46,0,2.88,0,4.26s-.15,2.7-.3,4c-.29.51-.58,1-.88,1.53s-.61,1-.93,1.51q-1.12,1.82-2.34,3.57c-.81,1.16-1.65,2.3-2.5,3.4s-1.53,1.92-2.31,2.83S51.91,58.12,51.11,59c-.66.68-1.32,1.33-2,1.95s-1.33,1.21-2,1.76a28.85,28.85,0,0,1-6.15,4,14.2,14.2,0,0,1-6,1.47,14.35,14.35,0,0,1-6.08-1.51,29,29,0,0,1-6.06-4q1.3,0,2.64-.06c.89,0,1.8-.12,2.71-.22a17.77,17.77,0,0,0,3.55,1.77A9.82,9.82,0,0,0,35,64.7Z"/><path class="cls-1" d="M70,24.37c-.41-.79-.87-1.58-1.36-2.38s-1-1.59-1.58-2.39a15,15,0,0,0-.37-4,8.35,8.35,0,0,0-1.35-3,10.66,10.66,0,0,0-1.76-1.81,19,19,0,0,0-2.38-1.65C60.47,8.77,59.73,8.39,59,8s-1.61-.7-2.49-1l-.72-.26L55,6.47c-1.19-.39-2.46-.75-3.79-1.07s-2.71-.61-4.14-.86a76,76,0,0,0-8.74-1,80.52,80.52,0,0,0-9.32,0l-1.47.1c-.48,0-1,.08-1.43.12,1.18-.74,2.36-1.42,3.52-2.06S31.93.53,33.06,0h.45c1.14,0,2.3,0,3.45.07s2.31.12,3.47.21c1.36.11,2.73.25,4.08.43s2.68.38,4,.63c.93.17,1.86.36,2.76.57s1.8.43,2.66.67,1.76.52,2.6.8S58.18,4,59,4.3a28.66,28.66,0,0,1,5.3,2.77A15.91,15.91,0,0,1,68,10.55a12.72,12.72,0,0,1,2.33,6.37A25.56,25.56,0,0,1,70,24.37Z"/><path class="cls-1" d="M24.07,59.13h-.75c-.79,0-1.56,0-2.3-.08s-1.45-.13-2.13-.24c-.73-.78-1.45-1.59-2.16-2.42s-1.39-1.69-2.06-2.56c1.21.63,2.45,1.24,3.69,1.81s2.5,1.11,3.74,1.61q.49.5,1,1C23.41,58.54,23.74,58.84,24.07,59.13Z"/><path class="cls-1" d="M4.82,12.45a9.7,9.7,0,0,0-1.09,3.1,18.19,18.19,0,0,0-.25,3.94c0,.78.11,1.6.22,2.45s.26,1.72.45,2.63c.12.56.25,1.14.4,1.73s.31,1.18.48,1.79c.35,1.16.74,2.35,1.19,3.57s1,2.45,1.5,3.71,1.14,2.52,1.79,3.8,1.34,2.57,2.08,3.86q1.26,2.2,2.59,4.22t2.7,3.86c-1.29-.66-2.52-1.34-3.68-2S11,47.68,9.92,47l-.67-1.12c-.22-.36-.43-.73-.64-1.1s-.29-.5-.43-.75l-.42-.76c-.63-1.15-1.25-2.34-1.83-3.55S4.77,37.24,4.24,36s-.93-2.26-1.34-3.4-.8-2.27-1.14-3.41c-.26-.88-.5-1.76-.71-2.63S.66,24.82.51,24a27.44,27.44,0,0,1-.43-7.24,14.23,14.23,0,0,1,1.78-6,14.29,14.29,0,0,1,4.39-4.5,28.52,28.52,0,0,1,7.07-3.38c-.42.72-.83,1.47-1.22,2.24S11.32,6.65,11,7.47A18.4,18.4,0,0,0,7.22,9.76,10.32,10.32,0,0,0,4.82,12.45Z"/></g></g></svg>