<svg xmlns="http://www.w3.org/2000/svg" viewBox="0 0 68.75 70.06"><defs><style>.cls-1{fill:#401264;}</style></defs><title>resist</title><g id="Layer_2" data-name="Layer 2"><g id="Layer_1-2" data-name="Layer 1"><path class="cls-1" d="M43.6,12.52l-.35-.26L42.89,12c1.44.25,2.82.53,4.15.86s2.59.68,3.79,1.07l1.06,1c.35.31.7.63,1,1,.51,1.14,1,2.36,1.45,3.65s.89,2.64,1.29,4.06a74.5,74.5,0,0,0-5.59-5.68A79.76,79.76,0,0,0,43.6,12.52Z"/><path class="cls-1" d="M4,38.44c-.09.76-.17,1.5-.24,2.23s-.12,1.45-.16,2.16c-.55-1.26-1-2.5-1.5-3.71S1.21,36.71.87,35.55c.16-1.1.35-2.2.57-3.31s.45-2.22.7-3.33Q3.25,27.46,4.54,26c.87-1,1.8-2,2.78-3-.77,2.37-1.45,4.88-2,7.48S4.27,35.72,4,38.44Z"/><path class="cls-1" d="M39.76,62.49c1.72-.62,3.39-1.28,5-2s3.13-1.42,4.58-2.18c-.89,1.16-1.79,2.27-2.69,3.31s-1.82,2-2.74,2.93c-.5.21-1,.4-1.5.59s-1,.38-1.48.55l-1.15.41-1.16.39c-1.24-.12-2.53-.3-3.86-.52s-2.7-.5-4.1-.83c1.46-.34,3-.73,4.48-1.17S38.19,63.05,39.76,62.49Z"/><path class="cls-1" d="M68.58,43.83a14.24,14.24,0,0,1-2.48,5.61,27.73,27.73,0,0,1-4.85,5.16c-.67.57-1.38,1.13-2.11,1.67s-1.49,1.08-2.27,1.59S55.18,59,54.31,59.47s-1.76,1-2.67,1.5c.86-1.1,1.69-2.24,2.5-3.4s1.6-2.36,2.35-3.57c.27-.19.53-.39.79-.59s.52-.39.76-.59c.76-.6,1.46-1.2,2.11-1.81a25.23,25.23,0,0,0,1.78-1.82,17.45,17.45,0,0,0,2.17-3,9.72,9.72,0,0,0,1.09-2.94,9.27,9.27,0,0,0,0-2.79,17.09,17.09,0,0,0-.8-3.21c-.27-.76-.59-1.55-1-2.36s-.81-1.63-1.29-2.47c-.22-.38-.45-.77-.69-1.16s-.49-.79-.75-1.19c-.14-.73-.28-1.45-.43-2.17s-.31-1.43-.48-2.14c-.13-.54-.28-1.15-.46-1.8s-.37-1.35-.58-2.09c.74.86,1.46,1.73,2.14,2.6s1.33,1.74,2,2.62,1.08,1.59,1.57,2.38,1,1.59,1.37,2.38a27.42,27.42,0,0,1,2.48,6.29A14,14,0,0,1,68.58,43.83Z"/><path class="cls-1" d="M32.66,5.93c-.84-.38-1.66-.72-2.45-1s-1.58-.54-2.33-.74A17.52,17.52,0,0,0,23,3.47a8.53,8.53,0,0,0-3.81.83,11.64,11.64,0,0,0-2.58,1.84A20.76,20.76,0,0,0,14.13,9c-.46.61-.91,1.27-1.36,2s-.88,1.45-1.31,2.23c-.21.39-.42.79-.62,1.19s-.41.82-.61,1.24Q9.4,16.29,8.61,17c-.53.47-1,.94-1.56,1.42s-.93.89-1.38,1.33-.88.88-1.3,1.32q.54-1.6,1.14-3.15c.41-1,.83-2,1.27-3,.37-.82.76-1.61,1.15-2.39S8.74,11,9.16,10.3a31.83,31.83,0,0,1,4-5.51,16.21,16.21,0,0,1,4.53-3.56A11,11,0,0,1,20.33.29,13.63,13.63,0,0,1,23.2,0,20.16,20.16,0,0,1,28,.63a32.75,32.75,0,0,1,4.84,1.62c.83.35,1.65.72,2.45,1.11s1.59.8,2.35,1.22c1.3.72,2.52,1.45,3.65,2.17s2.15,1.41,3,2.05c-1.31-.25-2.64-.45-4-.63s-2.71-.32-4.08-.43c-.62-.34-1.22-.66-1.83-1S33.24,6.19,32.66,5.93Z"/><path class="cls-1" d="M3.85,53c.13.94.29,1.83.48,2.68A22,22,0,0,0,5,58.07a16.54,16.54,0,0,0,1.5,3.33,10,10,0,0,0,2,2.4,9.39,9.39,0,0,0,2.68,1.55,17.29,17.29,0,0,0,3.58.93c.67.11,1.38.19,2.12.24s1.51.08,2.31.08h.74c.44,0,.9,0,1.36,0l1.4-.09c1.28.42,2.6.83,3.95,1.2s2.72.72,4.1,1c-1.12.25-2.24.46-3.35.65s-2.22.34-3.31.46c-.92.1-1.82.18-2.72.22s-1.77.07-2.63.06a27.48,27.48,0,0,1-7-.88,14.23,14.23,0,0,1-5.46-2.76,14.11,14.11,0,0,1-3.47-4.7,27,27,0,0,1-2.1-6.84C.52,54.05.4,53.18.3,52.29S.13,50.48.08,49.53s-.08-2-.08-3,0-2,.08-3.12q.8,1.88,1.68,3.69c.59,1.21,1.2,2.4,1.84,3.55,0,.4.06.79.11,1.17S3.8,52.62,3.85,53Z"/></g></g></svg>