<svg xmlns="http://www.w3.org/2000/svg" viewBox="0 0 69.05 69.25"><defs><style>.cls-1{fill:#c5b7d0;}</style></defs><title>silk</title><g id="Layer_2" data-name="Layer 2"><g id="Layer_1-2" data-name="Layer 1"><path class="cls-1" d="M68.89,48.32c-.53.6-1.13,1.21-1.77,1.82S65.77,51.35,65,52c0-.3.09-.61.13-.92s.09-.62.12-.94c.15-1.27.25-2.59.3-4s.06-2.79,0-4.25A76.53,76.53,0,0,0,65,33.93a82.52,82.52,0,0,0-1.53-8.27c-.12-.51-.25-1-.38-1.51s-.27-1-.4-1.48c-.4-1.42-.84-2.77-1.29-4.06s-.94-2.5-1.45-3.65c-.11-.24-.21-.47-.32-.7s-.21-.46-.32-.68c.88.32,1.71.67,2.49,1s1.52.74,2.2,1.14c.35.91.68,1.82,1,2.69s.56,1.73.8,2.54.42,1.43.59,2.09.32,1.25.45,1.8.33,1.41.48,2.13.3,1.45.43,2.18.29,1.66.42,2.5.24,1.68.35,2.52c.17,1.4.31,2.8.41,4.19s.16,2.79.19,4.16c0,1,0,2,0,2.92S69,47.38,68.89,48.32Z"/><path class="cls-1" d="M53.91,65.54a17.3,17.3,0,0,0,3.61-.92,9.77,9.77,0,0,0,2.72-1.55,9.59,9.59,0,0,0,2-2.5A18.88,18.88,0,0,0,63.84,57c.78-.52,1.54-1.05,2.27-1.59s1.43-1.1,2.11-1.67a29.53,29.53,0,0,1-2.15,7,14.46,14.46,0,0,1-3.62,5h0a14.24,14.24,0,0,1-5.5,2.7,27.85,27.85,0,0,1-7,.84c.68-.55,1.35-1.14,2-1.76S53.25,66.22,53.91,65.54Z"/><path class="cls-1" d="M3.55,42.4A9.67,9.67,0,0,0,4.7,45.47,17.68,17.68,0,0,0,7,48.65c0,1,.13,1.87.23,2.77s.22,1.75.37,2.58a27.79,27.79,0,0,1-5-5.27A14.4,14.4,0,0,1,.16,43a14.12,14.12,0,0,1,.36-5.82,26.49,26.49,0,0,1,2.79-6.59q.23,1.28.54,2.58c.21.87.45,1.75.71,2.63a16.2,16.2,0,0,0-1,3.52A9.85,9.85,0,0,0,3.55,42.4Z"/><path class="cls-1" d="M50,3.7a10.38,10.38,0,0,0-2.5-.26,17.67,17.67,0,0,0-2.89.27c-.76-.42-1.55-.83-2.35-1.22s-1.62-.77-2.45-1.11a30.79,30.79,0,0,1,4-1A20.64,20.64,0,0,1,47.57,0a14.8,14.8,0,0,1,1.65.09,11,11,0,0,1,1.56.26,12.94,12.94,0,0,1,6.33,3.81,28.36,28.36,0,0,1,4.65,6.72c-.78-.32-1.6-.63-2.44-.91s-1.71-.55-2.6-.8A17.81,17.81,0,0,0,53.45,5.5,8.51,8.51,0,0,0,50,3.7Z"/><path class="cls-1" d="M28.9,10.38c-2.12,1.32-4.25,2.8-6.36,4.42s-4.17,3.38-6.17,5.26l-1.06,1-1,1c-1,1-1.92,2-2.78,3s-1.67,2-2.4,2.94c-.4.53-.78,1.06-1.14,1.58s-.7,1-1,1.54c-.19-.9-.34-1.78-.45-2.63s-.19-1.66-.22-2.45c.73-1,1.51-1.93,2.35-2.91s1.74-2,2.7-3c.43-.44.86-.88,1.31-1.32L14,17.56c.51-.48,1-1,1.56-1.43l1.62-1.41c.63-.53,1.28-1.06,1.93-1.58s1.32-1,2-1.54c1.09-.82,2.2-1.62,3.33-2.38S26.7,7.72,27.85,7s2.33-1.37,3.5-2,2.34-1.2,3.5-1.72c.75.21,1.52.46,2.32.75s1.62.62,2.45,1c-.61.22-1.23.45-1.85.71s-1.27.53-1.91.83c-1.13.52-2.28,1.1-3.44,1.73S30.08,9.64,28.9,10.38Z"/><path class="cls-1" d="M19.68,57.7q2,1,4.18,2c1.45.63,3,1.24,4.51,1.81s3.16,1.11,4.7,1.58,3.06.87,4.55,1.22,2.76.61,4.09.83,2.62.4,3.87.52l1.53.12c.51,0,1,.06,1.49.07-.7.62-1.4,1.18-2.09,1.7s-1.37,1-2,1.41c-1.12-.12-2.25-.29-3.38-.48s-2.27-.41-3.41-.66c-1.38-.31-2.75-.65-4.09-1s-2.67-.78-4-1.21l-1.23-.42-1.21-.43-1.13-.43-1.15-.45c-1.24-.5-2.5-1-3.74-1.61s-2.48-1.17-3.69-1.81c-1-.5-1.9-1-2.83-1.56s-1.82-1.1-2.69-1.67a24.48,24.48,0,0,1-.66-2.4c-.19-.84-.35-1.74-.48-2.67l.93.71,1,.71c1,.72,2.12,1.43,3.28,2.13S18.39,57,19.68,57.7Z"/></g></g></svg>